# 3ds Max Wavefront OBJ Exporter v0.97b - (c)2007 guruware
# File Created: 02.01.2013 21:17:22

#
# object door
#

v  62.0234 72.3903 0.5088
v  62.6593 74.4293 0.5088
v  119.6694 56.6490 0.5088
v  119.0334 54.6100 0.5088
v  62.0234 72.3903 121.5088
v  119.0334 54.6100 121.5088
v  119.6694 56.6490 121.5088
v  62.6593 74.4293 121.5088
# 8 vertices

vn 0.0000 0.0000 -1.0000
vn 0.0000 0.0000 1.0000
vn -0.2977 -0.9546 0.0000
vn 0.9546 -0.2977 0.0000
vn 0.2977 0.9546 0.0000
vn -0.9546 0.2977 0.0000
# 6 vertex normals

vt 1.0000 0.0000 0.0000
vt 1.0000 1.0000 0.0000
vt 0.0000 1.0000 0.0000
vt 0.0000 0.0000 0.0000
# 4 texture coords

g door
s 2
f 1/1/1 2/2/1 3/3/1 4/4/1 
s 4
f 5/4/2 6/1/2 7/2/2 8/3/2 
s 8
f 1/4/3 4/1/3 6/2/3 5/3/3 
s 16
f 4/4/4 3/1/4 7/2/4 6/3/4 
s 32
f 3/4/5 2/1/5 8/2/5 7/3/5 
s 64
f 2/4/6 1/1/6 5/2/6 8/3/6 
# 6 polygons

