# 3ds Max Wavefront OBJ Exporter v0.97b - (c)2007 guruware
# File Created: 02.01.2013 21:17:23

#
# object walls
#

v  176.1963 73.0101 145.0000
v  176.1963 -230.2783 145.0000
v  -202.8596 -230.2783 145.0000
v  121.9446 73.0101 145.0000
v  58.7111 73.0101 145.0000
v  -202.8596 73.0101 145.0000
v  -202.8596 73.0101 123.3378
v  -202.8596 -230.2784 123.3378
v  -202.8596 -230.2783 0.0000
v  -202.8596 73.0101 0.0000
v  176.1963 -230.2783 123.3378
v  176.1963 -230.2783 0.0000
v  176.1963 73.0101 123.3378
v  176.1963 73.0101 0.0000
v  58.7111 73.0101 123.3378
v  121.9446 73.0101 123.3378
v  121.9446 73.0101 0.0000
v  58.7111 73.0101 0.0000
v  121.9446 74.6629 0.0000
v  58.7111 74.6629 0.0000
v  121.9446 74.6629 123.3378
v  58.7111 74.6629 123.3378
v  -202.3778 77.0547 145.0000
v  -202.3779 395.1213 145.0000
v  176.6780 395.1213 145.0000
v  58.7111 77.0547 145.0000
v  121.9446 77.0547 145.0000
v  176.6781 77.0548 145.0000
v  176.6781 77.0548 123.3378
v  176.6780 395.1213 123.3378
v  176.6780 395.1213 0.0000
v  176.6781 77.0548 0.0000
v  -202.3779 395.1213 123.3378
v  -202.3779 395.1213 0.0000
v  -202.3778 77.0547 123.3378
v  -202.3778 77.0547 0.0000
v  121.9446 77.0547 123.3378
v  58.7111 77.0547 123.3378
v  58.7111 77.0547 0.0000
v  121.9446 77.0547 0.0000
# 40 vertices

vn 0.0000 0.0000 -1.0000
vn 1.0000 0.0000 0.0000
vn 0.0000 1.0000 0.0000
vn -1.0000 0.0000 0.0000
vn 0.0000 -1.0000 0.0000
vn 0.0000 1.0000 -0.0000
vn 0.0000 0.0000 1.0000
vn -1.0000 -0.0000 0.0000
vn -0.0000 1.0000 0.0000
# 9 vertex normals

vt 1.0000 1.0000 0.0000
vt 1.0000 0.0000 0.0000
vt 0.0000 0.0000 0.0000
vt 0.6667 1.0000 0.0000
vt 0.3333 1.0000 0.0000
vt 0.0000 1.0000 0.0000
# 6 texture coords

g walls
s 1
f 1/1/1 2/2/1 3/3/1 4/4/1 
f 5/5/1 4/4/1 3/3/1 6/6/1 
s off
f 7/6/2 8/3/2 9/3/2 10/6/2 
f 8/3/3 11/2/3 12/2/3 9/3/3 
f 11/2/4 13/1/4 14/1/4 12/2/4 
f 5/5/5 15/5/5 16/4/5 4/4/5 
f 6/6/5 7/6/5 15/5/5 5/5/5 
f 14/1/5 13/1/5 16/4/5 17/4/5 
f 6/6/2 3/3/2 8/3/2 7/6/2 
f 3/3/6 2/2/6 11/2/6 8/3/6 
f 2/2/4 1/1/4 13/1/4 11/2/4 
f 10/6/5 18/5/5 15/5/5 7/6/5 
f 1/1/5 4/4/5 16/4/5 13/1/5 
f 18/5/7 17/4/7 19/4/7 20/5/7 
f 17/4/4 16/4/4 21/4/4 19/4/4 
f 16/4/1 15/5/1 22/5/1 21/4/1 
f 15/5/2 18/5/2 20/5/2 22/5/2 
s 1
f 23/1/1 24/2/1 25/3/1 26/4/1 
f 27/5/1 26/4/1 25/3/1 28/6/1 
s off
f 29/6/8 30/3/8 31/3/8 32/6/8 
f 30/3/5 33/2/5 34/2/5 31/3/5 
f 33/2/2 35/1/2 36/1/2 34/2/2 
f 27/5/3 37/5/3 38/4/3 26/4/3 
f 28/6/9 29/6/9 37/5/9 27/5/9 
f 36/1/3 35/1/3 38/4/3 39/4/3 
f 28/6/8 25/3/8 30/3/8 29/6/8 
f 25/3/5 24/2/5 33/2/5 30/3/5 
f 24/2/2 23/1/2 35/1/2 33/2/2 
f 32/6/9 40/5/9 37/5/9 29/6/9 
f 23/1/3 26/4/3 38/4/3 35/1/3 
f 40/5/7 39/4/7 20/4/7 19/5/7 
f 39/4/2 38/4/2 22/4/2 20/4/2 
f 38/4/1 37/5/1 21/5/1 22/4/1 
f 37/5/4 40/5/4 19/5/4 21/5/4 
# 34 polygons

